<svg xmlns="http://www.w3.org/2000/svg" viewBox="0 0 800 500">
  <defs>
    <radialGradient id="bg_i1" cx="50%" cy="50%" r="70%">
      <stop offset="0%" stop-color="#fffbe6"/>
      <stop offset="100%" stop-color="#fff3b0"/>
    </radialGradient>
  </defs>
  <rect width="800" height="500" fill="url(#bg_i1)"/>

  <!-- Confetti storm -->
  <rect x="60"  y="30"  width="14" height="7"  rx="2" fill="#F5C518" opacity=".9" transform="rotate(25 60 30)"/>
  <rect x="140" y="55"  width="10" height="5"  rx="2" fill="#ff4466" opacity=".8" transform="rotate(-18 140 55)"/>
  <rect x="220" y="20"  width="13" height="6"  rx="2" fill="#44aaff" opacity=".8" transform="rotate(40 220 20)"/>
  <rect x="310" y="45"  width="11" height="5"  rx="2" fill="#44cc66" opacity=".8" transform="rotate(-30 310 45)"/>
  <rect x="480" y="25"  width="14" height="6"  rx="2" fill="#ff8800" opacity=".8" transform="rotate(20 480 25)"/>
  <rect x="580" y="50"  width="10" height="5"  rx="2" fill="#cc44ff" opacity=".8" transform="rotate(-25 580 50)"/>
  <rect x="660" y="30"  width="13" height="6"  rx="2" fill="#F5C518" opacity=".9" transform="rotate(35 660 30)"/>
  <rect x="730" y="60"  width="11" height="5"  rx="2" fill="#ff4466" opacity=".8" transform="rotate(-15 730 60)"/>
  <rect x="90"  y="120" width="12" height="6"  rx="2" fill="#44aaff" opacity=".7" transform="rotate(30 90 120)"/>
  <rect x="700" y="110" width="12" height="5"  rx="2" fill="#44cc66" opacity=".7" transform="rotate(-20 700 110)"/>
  <rect x="170" y="150" width="9"  height="5"  rx="2" fill="#ff8800" opacity=".7" transform="rotate(45 170 150)"/>
  <rect x="620" y="140" width="10" height="5"  rx="2" fill="#cc44ff" opacity=".7" transform="rotate(-35 620 140)"/>
  <circle cx="100" cy="80"  r="6" fill="#F5C518" opacity=".7"/>
  <circle cx="390" cy="40"  r="5" fill="#ff4466" opacity=".8"/>
  <circle cx="550" cy="70"  r="6" fill="#44aaff" opacity=".7"/>
  <circle cx="760" cy="100" r="5" fill="#44cc66" opacity=".7"/>
  <circle cx="30"  cy="160" r="4" fill="#ff8800" opacity=".7"/>

  <!-- Balloons left cluster -->
  <!-- Balloon 1 (red) -->
  <ellipse cx="115" cy="280" rx="38" ry="48" fill="#ff4466"/>
  <path d="M115 328 Q110 355 112 370" fill="none" stroke="#ff4466" stroke-width="2" stroke-linecap="round"/>
  <ellipse cx="108" cy="290" rx="10" ry="6" fill="white" opacity=".3" transform="rotate(-30 108 290)"/>
  <!-- Balloon 2 (blue) -->
  <ellipse cx="162" cy="265" rx="34" ry="44" fill="#4488ff"/>
  <path d="M162 309 Q158 338 160 355" fill="none" stroke="#4488ff" stroke-width="2" stroke-linecap="round"/>
  <ellipse cx="155" cy="276" rx="9" ry="5" fill="white" opacity=".3" transform="rotate(-30 155 276)"/>
  <!-- Balloon 3 (green) -->
  <ellipse cx="75" cy="260" rx="32" ry="42" fill="#44cc66"/>
  <path d="M75 302 Q70 330 72 348" fill="none" stroke="#44cc66" stroke-width="2" stroke-linecap="round"/>
  <ellipse cx="68" cy="270" rx="8" ry="5" fill="white" opacity=".3" transform="rotate(-30 68 270)"/>

  <!-- Balloons right cluster -->
  <ellipse cx="650" cy="275" rx="38" ry="48" fill="#cc44ff"/>
  <path d="M650 323 Q645 350 647 368" fill="none" stroke="#cc44ff" stroke-width="2" stroke-linecap="round"/>
  <ellipse cx="643" cy="285" rx="10" ry="6" fill="white" opacity=".3" transform="rotate(-30 643 285)"/>
  <ellipse cx="700" cy="260" rx="34" ry="44" fill="#ff8800"/>
  <path d="M700 304 Q696 332 698 350" fill="none" stroke="#ff8800" stroke-width="2" stroke-linecap="round"/>
  <ellipse cx="693" cy="271" rx="9" ry="5" fill="white" opacity=".3" transform="rotate(-30 693 271)"/>
  <ellipse cx="610" cy="258" rx="32" ry="42" fill="#F5C518"/>
  <path d="M610 300 Q605 328 607 346" fill="none" stroke="#c9a000" stroke-width="2" stroke-linecap="round"/>
  <ellipse cx="603" cy="268" rx="8" ry="5" fill="white" opacity=".3" transform="rotate(-30 603 268)"/>

  <!-- Big "25" -->
  <text x="400" y="310" text-anchor="middle" font-family="'Georgia', serif" font-size="210" font-weight="900" fill="#C9A000" opacity=".18" letter-spacing="-8">25</text>
  <text x="400" y="308" text-anchor="middle" font-family="'Georgia', serif" font-size="208" font-weight="900" fill="none" stroke="#C9A000" stroke-width="3" opacity=".15" letter-spacing="-8">25</text>
  <!-- Foreground "25" text -->
  <text x="400" y="300" text-anchor="middle" font-family="'Georgia', serif" font-size="190" font-weight="900" fill="#F5C518" letter-spacing="-8">25</text>
  <text x="400" y="300" text-anchor="middle" font-family="'Georgia', serif" font-size="190" font-weight="900" fill="none" stroke="#C9A000" stroke-width="4" letter-spacing="-8" opacity=".5">25</text>

  <!-- Birthday cake on bottom center -->
  <!-- Cake base -->
  <rect x="322" y="390" width="156" height="72" rx="10" fill="#f5e0c0"/>
  <rect x="322" y="386" width="156" height="14" rx="5" fill="#e8c090"/>
  <!-- Cake layer 2 -->
  <rect x="340" y="334" width="120" height="58" rx="8" fill="#ffd4d4"/>
  <rect x="340" y="330" width="120" height="12" rx="5" fill="#ffb0b0"/>
  <!-- Frosting drips -->
  <path d="M350 330 Q355 320 360 330" fill="#fff0f0"/>
  <path d="M370 330 Q375 318 380 330" fill="#fff0f0"/>
  <path d="M390 330 Q395 316 400 330" fill="#fff0f0"/>
  <path d="M410 330 Q415 318 420 330" fill="#fff0f0"/>
  <path d="M430 330 Q435 320 440 330" fill="#fff0f0"/>
  <path d="M450 330 Q455 318 460 330" fill="#fff0f0"/>
  <!-- Candles -->
  <rect x="370" y="298" width="10" height="36" rx="4" fill="#ff4466"/>
  <rect x="394" y="292" width="10" height="42" rx="4" fill="#F5C518"/>
  <rect x="418" y="298" width="10" height="36" rx="4" fill="#44aaff"/>
  <!-- Flames -->
  <path d="M371 296 Q375 283 379 296 Q376 302 371 296 Z" fill="#ff8800"/>
  <path d="M373 296 Q375 287 377 296 Q375 300 373 296 Z" fill="#ffdd00"/>
  <path d="M395 290 Q399 277 403 290 Q400 296 395 290 Z" fill="#ff8800"/>
  <path d="M397 290 Q399 281 401 290 Q399 294 397 290 Z" fill="#ffdd00"/>
  <path d="M419 296 Q423 283 427 296 Q424 302 419 296 Z" fill="#ff8800"/>
  <path d="M421 296 Q423 287 425 296 Q423 300 421 296 Z" fill="#ffdd00"/>
  <!-- Cake decoration dots -->
  <circle cx="350" cy="360" r="6" fill="#F5C518"/>
  <circle cx="370" cy="368" r="5" fill="#ff4466"/>
  <circle cx="390" cy="360" r="6" fill="#44aaff"/>
  <circle cx="410" cy="368" r="5" fill="#44cc66"/>
  <circle cx="430" cy="360" r="6" fill="#cc44ff"/>
  <circle cx="450" cy="368" r="5" fill="#F5C518"/>
  <!-- Cake text -->
  <text x="400" y="420" text-anchor="middle" font-family="sans-serif" font-size="14" font-weight="bold" fill="#c87830" opacity=".8">Happy Birthday!</text>

  <!-- Brain with party hat (frontal lobe joke) -->
  <g transform="translate(700,370) scale(0.9)">
    <!-- Brain shape simplified -->
    <path d="M0 0 Q-20 -30 -15 -50 Q-5 -65 10 -55 Q15 -70 30 -62 Q45 -70 48 -52 Q62 -58 60 -38 Q72 -25 62 -12 Q68 5 52 10 Q48 25 32 22 Q20 30 8 22 Q-8 28 -15 12 Q-28 8 -22 -8 Z" fill="#ffb0c8"/>
    <!-- Brain line details -->
    <path d="M-5 -20 Q5 -35 15 -25 Q20 -15 10 -8" fill="none" stroke="#ff88aa" stroke-width="2.5" stroke-linecap="round"/>
    <path d="M20 -15 Q30 -28 38 -18 Q40 -8 32 -2" fill="none" stroke="#ff88aa" stroke-width="2.5" stroke-linecap="round"/>
    <path d="M-10 -2 Q0 12 15 8 Q25 18 35 10" fill="none" stroke="#ff88aa" stroke-width="2" stroke-linecap="round"/>
    <!-- Party hat on brain -->
    <path d="M18 -55 L30 -90 L42 -55 Z" fill="#F5C518"/>
    <ellipse cx="30" cy="-55" rx="12" ry="5" fill="#c9a000"/>
    <circle cx="30" cy="-92" r="5" fill="#ff4466"/>
    <!-- Hat stripes -->
    <line x1="20" y1="-72" x2="40" y2="-72" stroke="#c9a000" stroke-width="2" opacity=".5"/>
    <!-- "VOLGROEID" label -->
  </g>
  <text x="732" y="415" text-anchor="middle" font-family="sans-serif" font-size="9" font-weight="bold" fill="#cc5588" opacity=".8">✓ VOLGROEID</text>

  <!-- Stars scattered -->
  <text x="200" y="200" font-family="sans-serif" font-size="24" fill="#F5C518" opacity=".7">★</text>
  <text x="580" y="190" font-family="sans-serif" font-size="20" fill="#ff4466" opacity=".6">★</text>
  <text x="350" y="80"  font-family="sans-serif" font-size="16" fill="#44aaff" opacity=".6">★</text>
  <text x="450" y="90"  font-family="sans-serif" font-size="18" fill="#44cc66" opacity=".6">★</text>
</svg>
