<svg xmlns="http://www.w3.org/2000/svg" viewBox="0 0 800 500">
  <defs>
    <linearGradient id="bg4" x1="0" y1="0" x2="1" y2="1">
      <stop offset="0%" stop-color="#FFF8D6"/>
      <stop offset="55%" stop-color="#FDEEA0"/>
      <stop offset="100%" stop-color="#F5D862"/>
    </linearGradient>
  </defs>

  <!-- Warm yellow background -->
  <rect width="800" height="500" fill="url(#bg4)"/>

  <!-- Subtle bokeh circles -->
  <circle cx="80" cy="90" r="55" fill="#F5C518" opacity=".10"/>
  <circle cx="720" cy="110" r="65" fill="#F5C518" opacity=".09"/>
  <circle cx="140" cy="430" r="42" fill="#F5C518" opacity=".10"/>
  <circle cx="660" cy="440" r="48" fill="#F5C518" opacity=".09"/>
  <circle cx="400" cy="55" r="35" fill="white" opacity=".18"/>
  <circle cx="500" cy="460" r="30" fill="white" opacity=".14"/>

  <!-- Decorative dots -->
  <circle cx="45" cy="160" r="5" fill="#C9A000" opacity=".4"/>
  <circle cx="755" cy="210" r="5" fill="#C9A000" opacity=".4"/>
  <circle cx="105" cy="370" r="4" fill="#C9A000" opacity=".35"/>
  <circle cx="695" cy="365" r="4" fill="#C9A000" opacity=".35"/>
  <circle cx="200" cy="70" r="4.5" fill="#F5C518" opacity=".5"/>
  <circle cx="600" cy="75" r="4.5" fill="#F5C518" opacity=".5"/>
  <circle cx="350" cy="470" r="4" fill="#F5C518" opacity=".45"/>
  <circle cx="450" cy="468" r="4" fill="#F5C518" opacity=".45"/>

  <!-- ── POLAROIDS scattered around ── -->

  <!-- Polaroid 1 — top left, tilted left -->
  <g transform="rotate(-14, 125, 145)">
    <rect x="72" y="88" width="106" height="122" rx="5" fill="white"/>
    <rect x="72" y="88" width="106" height="122" rx="5" fill="none" stroke="#e8e0d0" stroke-width="1.5"/>
    <rect x="80" y="96" width="90" height="80" fill="#d4ecd4"/>
    <!-- Mini scene: green hill, sun -->
    <ellipse cx="125" cy="120" rx="12" ry="12" fill="#FFD700"/>
    <ellipse cx="105" cy="168" rx="28" ry="16" fill="#4caf50"/>
    <ellipse cx="140" cy="170" rx="24" ry="14" fill="#45a049"/>
    <text x="125" y="200" text-anchor="middle" font-family="sans-serif" font-size="8.5" fill="#888">Brussel ☀️</text>
  </g>

  <!-- Polaroid 2 — top right, tilted right -->
  <g transform="rotate(16, 655, 118)">
    <rect x="601" y="64" width="106" height="122" rx="5" fill="white"/>
    <rect x="601" y="64" width="106" height="122" rx="5" fill="none" stroke="#e8e0d0" stroke-width="1.5"/>
    <rect x="609" y="72" width="90" height="80" fill="#ffe0ec"/>
    <!-- Mini scene: two figures -->
    <circle cx="636" cy="96" r="9" fill="#F5C5A3"/>
    <circle cx="658" cy="96" r="9" fill="#E8B08A"/>
    <rect x="629" y="105" width="14" height="22" rx="4" fill="#e91e8c"/>
    <rect x="651" y="105" width="14" height="22" rx="4" fill="#1565c0"/>
    <text x="655" y="172" text-anchor="middle" font-family="sans-serif" font-size="8.5" fill="#888">♥ samen</text>
  </g>

  <!-- Polaroid 3 — bottom left, slight tilt -->
  <g transform="rotate(9, 118, 378)">
    <rect x="60" y="328" width="106" height="122" rx="5" fill="white"/>
    <rect x="60" y="328" width="106" height="122" rx="5" fill="none" stroke="#e8e0d0" stroke-width="1.5"/>
    <rect x="68" y="336" width="90" height="80" fill="#e8f4ff"/>
    <!-- Mini scene: beach waves -->
    <rect x="68" y="336" width="90" height="44" fill="#87ceeb" opacity=".7"/>
    <ellipse cx="113" cy="355" rx="13" ry="13" fill="#FFD700"/>
    <rect x="68" y="380" width="90" height="36" fill="#f5d090"/>
    <path x="68" y="375" d="M72 375 Q82 370 92 375 Q102 370 112 375 Q122 370 132 375 Q142 370 152 375" fill="none" stroke="white" stroke-width="2.5" opacity=".7"/>
    <text x="113" y="430" text-anchor="middle" font-family="sans-serif" font-size="8.5" fill="#888">Zomer 🏖️</text>
  </g>

  <!-- Polaroid 4 — bottom right, tilted -->
  <g transform="rotate(-11, 648, 380)">
    <rect x="592" y="328" width="106" height="122" rx="5" fill="white"/>
    <rect x="592" y="328" width="106" height="122" rx="5" fill="none" stroke="#e8e0d0" stroke-width="1.5"/>
    <rect x="600" y="336" width="90" height="80" fill="#fff8e8"/>
    <!-- Eiffel tower mini -->
    <path d="M645 408 L633 366 L657 366 Z" fill="#9e9e9e" opacity=".55"/>
    <path d="M645 408 L641 380 L649 380 Z" fill="#757575" opacity=".65"/>
    <ellipse cx="645" cy="364" rx="9" ry="4" fill="#9e9e9e" opacity=".55"/>
    <text x="645" y="430" text-anchor="middle" font-family="sans-serif" font-size="8.5" fill="#888">Parijs 🗼</text>
  </g>

  <!-- Polaroid 5 — top center, blank/question (future) -->
  <g transform="rotate(-6, 400, 78)">
    <rect x="355" y="36" width="90" height="105" rx="5" fill="white" opacity=".85"/>
    <rect x="355" y="36" width="90" height="105" rx="5" fill="none" stroke="#e8e0d0" stroke-width="1.5" opacity=".7"/>
    <rect x="362" y="43" width="76" height="63" fill="#f5f5f5"/>
    <text x="400" y="82" text-anchor="middle" font-family="sans-serif" font-size="28" fill="#ccc">?</text>
    <text x="400" y="124" text-anchor="middle" font-family="sans-serif" font-size="8" fill="#bbb">nieuw...</text>
  </g>

  <!-- ── TIM (left of center) ── -->
  <!-- Legs / jeans -->
  <rect x="252" y="335" width="38" height="130" rx="12" fill="#2244aa"/>
  <rect x="296" y="335" width="38" height="130" rx="12" fill="#2244aa"/>
  <!-- Shoes -->
  <ellipse cx="271" cy="466" rx="26" ry="13" fill="#333"/>
  <ellipse cx="315" cy="466" rx="26" ry="13" fill="#333"/>
  <!-- T-shirt body -->
  <rect x="245" y="238" width="98" height="105" rx="16" fill="#1565c0"/>
  <!-- Left arm (relaxed) -->
  <rect x="212" y="248" width="35" height="85" rx="16" fill="#1565c0"/>
  <ellipse cx="229" cy="338" rx="20" ry="13" fill="#E8B08A"/>
  <!-- Right arm (reaching toward Amy, slight raise) -->
  <rect x="341" y="245" width="35" height="80" rx="16" fill="#1565c0" transform="rotate(-12 341 285)"/>
  <ellipse cx="374" cy="326" rx="20" ry="13" fill="#E8B08A" transform="rotate(-12 374 326)"/>
  <!-- Head -->
  <circle cx="294" cy="212" r="44" fill="#E8B08A"/>
  <!-- Blond hair -->
  <path d="M251 200 Q255 170 294 165 Q333 170 337 200" fill="#C4965A"/>
  <rect x="250" y="182" width="88" height="24" rx="12" fill="#C4965A"/>
  <!-- Big excited smile -->
  <path d="M272 228 Q294 242 316 228" fill="none" stroke="#8B5E52" stroke-width="3.5" stroke-linecap="round"/>
  <path d="M273 229 Q294 238 315 229" fill="#cc8877" opacity=".3"/>
  <!-- Happy eyes -->
  <circle cx="278" cy="207" r="8.5" fill="white"/>
  <circle cx="310" cy="207" r="8.5" fill="white"/>
  <circle cx="279" cy="207" r="5.5" fill="#1a1a1a"/>
  <circle cx="311" cy="207" r="5.5" fill="#1a1a1a"/>
  <circle cx="280" cy="206" r="2" fill="white"/>
  <circle cx="312" cy="206" r="2" fill="white"/>
  <!-- Eyebrows (happy raised) -->
  <path d="M271 197 Q279 193 287 196" fill="none" stroke="#C4965A" stroke-width="3"/>
  <path d="M301 196 Q309 193 317 197" fill="none" stroke="#C4965A" stroke-width="3"/>

  <!-- Tim speech bubble -->
  <rect x="148" y="148" width="132" height="50" rx="10" fill="white" opacity=".93"/>
  <path d="M240,198 L248,214 L226,200 Z" fill="white" opacity=".93"/>
  <text x="214" y="168" text-anchor="middle" font-family="sans-serif" font-size="13" font-weight="bold" fill="#1565c0">Kaaaaas!! 😄</text>
  <text x="214" y="186" text-anchor="middle" font-family="sans-serif" font-size="11" fill="#555">herinneringen maken!</text>

  <!-- ── AMY (right of center, holding camera) ── -->
  <!-- Legs -->
  <rect x="464" y="335" width="38" height="130" rx="12" fill="#c2185b"/>
  <rect x="508" y="335" width="38" height="130" rx="12" fill="#c2185b"/>
  <!-- Shoes -->
  <ellipse cx="483" cy="466" rx="26" ry="13" fill="#333"/>
  <ellipse cx="527" cy="466" rx="26" ry="13" fill="#333"/>
  <!-- Top/blouse body -->
  <rect x="457" y="238" width="96" height="105" rx="16" fill="#e91e8c"/>
  <!-- Right arm (at side) -->
  <rect x="551" y="248" width="34" height="82" rx="15" fill="#e91e8c"/>
  <ellipse cx="568" cy="334" rx="19" ry="13" fill="#F5C5A3"/>
  <!-- Left arm (holding camera up, bent) -->
  <rect x="425" y="245" width="34" height="55" rx="15" fill="#e91e8c" transform="rotate(18 425 272)"/>
  <!-- Lower arm holding camera -->
  <rect x="406" y="285" width="34" height="52" rx="15" fill="#e91e8c" transform="rotate(-5 406 311)"/>
  <ellipse cx="407" cy="340" rx="18" ry="13" fill="#F5C5A3" transform="rotate(-5 407 340)"/>

  <!-- CAMERA (held in front) -->
  <rect x="390" y="272" width="80" height="58" rx="10" fill="#1a1a1a"/>
  <!-- Camera top grip -->
  <rect x="436" y="262" width="25" height="12" rx="5" fill="#2a2a2a"/>
  <!-- Shutter button (red) -->
  <circle cx="451" cy="266" r="6" fill="#e53935"/>
  <!-- Lens barrel -->
  <circle cx="422" cy="301" r="20" fill="#2a2a2a"/>
  <circle cx="422" cy="301" r="15.5" fill="#111"/>
  <circle cx="422" cy="301" r="11" fill="#1a2266"/>
  <circle cx="422" cy="301" r="6" fill="#4488cc" opacity=".8"/>
  <!-- Lens shine -->
  <circle cx="418" cy="297" r="2.5" fill="white" opacity=".55"/>
  <!-- Flash unit -->
  <rect x="453" y="275" width="14" height="8" rx="3" fill="#FFD700" opacity=".75"/>
  <!-- Camera strap hint -->
  <path d="M390 278 Q380 268 375 258" fill="none" stroke="#888" stroke-width="3.5" stroke-linecap="round"/>

  <!-- Head -->
  <circle cx="505" cy="210" r="44" fill="#F5C5A3"/>
  <!-- Dark hair -->
  <ellipse cx="505" cy="190" rx="44" ry="27" fill="#2C1810"/>
  <!-- Side hair strands -->
  <path d="M462 204 Q453 222 455 248 Q467 243 466 229 Q464 216 466 208 Z" fill="#2C1810"/>
  <path d="M548 204 Q557 222 555 248 Q543 243 544 229 Q546 216 544 208 Z" fill="#2C1810"/>
  <!-- Excited smile -->
  <path d="M487 228 Q505 242 523 228" fill="none" stroke="#8B5E52" stroke-width="3.5" stroke-linecap="round"/>
  <path d="M488 229 Q505 238 522 229" fill="#cc8877" opacity=".3"/>
  <!-- Bright eyes -->
  <circle cx="490" cy="210" r="8.5" fill="white"/>
  <circle cx="520" cy="210" r="8.5" fill="white"/>
  <circle cx="491" cy="210" r="5.5" fill="#1a1a1a"/>
  <circle cx="521" cy="210" r="5.5" fill="#1a1a1a"/>
  <circle cx="492" cy="209" r="2" fill="white"/>
  <circle cx="522" cy="209" r="2" fill="white"/>
  <!-- Eyebrows -->
  <path d="M483 199 Q491 195 499 198" fill="none" stroke="#2C1810" stroke-width="3"/>
  <path d="M511 198 Q519 195 527 199" fill="none" stroke="#2C1810" stroke-width="3"/>

  <!-- Amy speech bubble -->
  <rect x="524" y="148" width="130" height="50" rx="10" fill="white" opacity=".93"/>
  <path d="M546,198 L540,214 L560,200 Z" fill="white" opacity=".93"/>
  <text x="589" y="168" text-anchor="middle" font-family="sans-serif" font-size="13" font-weight="bold" fill="#e91e8c">Kijk hier! 📸</text>
  <text x="589" y="186" text-anchor="middle" font-family="sans-serif" font-size="11" fill="#555">zeg kaasje!</text>

  <!-- Camera flash burst -->
  <circle cx="422" cy="301" r="30" fill="white" opacity=".06"/>
  <circle cx="422" cy="301" r="50" fill="white" opacity=".03"/>

  <!-- Floating stars / sparkles -->
  <text x="388" y="178" font-family="sans-serif" font-size="20" fill="#F5C518" opacity=".7">★</text>
  <text x="420" y="170" font-family="sans-serif" font-size="13" fill="#F5C518" opacity=".6">♥</text>
  <text x="448" y="180" font-family="sans-serif" font-size="18" fill="#F5C518" opacity=".55">★</text>
  <text x="370" y="190" font-family="sans-serif" font-size="10" fill="#C9A000" opacity=".5">✦</text>
  <text x="464" y="190" font-family="sans-serif" font-size="10" fill="#C9A000" opacity=".5">✦</text>
</svg>
