<svg xmlns="http://www.w3.org/2000/svg" viewBox="0 0 800 500">
  <defs>
    <linearGradient id="stadium" x1="0" y1="0" x2="0" y2="1">
      <stop offset="0%" stop-color="#4a90d9"/>
      <stop offset="100%" stop-color="#87c4f0"/>
    </linearGradient>
  </defs>
  <rect width="800" height="500" fill="url(#stadium)"/>
  <!-- Crowd (bleachers) -->
  <rect x="0" y="60" width="800" height="120" fill="#2255a8" opacity=".6" rx="4"/>
  <!-- Crowd dots -->
  <circle cx="40" cy="90" r="8" fill="#f5a0a0"/><circle cx="70" cy="80" r="8" fill="#a0f0a0"/><circle cx="100" cy="95" r="8" fill="#f0f0a0"/>
  <circle cx="130" cy="82" r="8" fill="#f5a0a0"/><circle cx="160" cy="92" r="8" fill="#a0c0f5"/><circle cx="190" cy="78" r="8" fill="#f5c8a0"/>
  <circle cx="220" cy="90" r="8" fill="#f5a0a0"/><circle cx="250" cy="85" r="8" fill="#c0a0f5"/><circle cx="280" cy="95" r="8" fill="#a0f0a0"/>
  <circle cx="310" cy="80" r="8" fill="#f5a0a0"/><circle cx="340" cy="88" r="8" fill="#f0f0a0"/><circle cx="370" cy="82" r="8" fill="#a0c0f5"/>
  <circle cx="400" cy="92" r="8" fill="#f5c8a0"/><circle cx="430" cy="78" r="8" fill="#f5a0a0"/><circle cx="460" cy="90" r="8" fill="#a0f0a0"/>
  <circle cx="490" cy="85" r="8" fill="#c0a0f5"/><circle cx="520" cy="95" r="8" fill="#f5a0a0"/><circle cx="550" cy="80" r="8" fill="#f0f0a0"/>
  <circle cx="580" cy="88" r="8" fill="#a0c0f5"/><circle cx="610" cy="82" r="8" fill="#f5c8a0"/><circle cx="640" cy="92" r="8" fill="#f5a0a0"/>
  <circle cx="670" cy="78" r="8" fill="#a0f0a0"/><circle cx="700" cy="90" r="8" fill="#c0a0f5"/><circle cx="730" cy="85" r="8" fill="#f5a0a0"/>
  <circle cx="760" cy="95" r="8" fill="#f0f0a0"/>
  <!-- Second row -->
  <circle cx="55" cy="115" r="8" fill="#a0f0a0"/><circle cx="85" cy="125" r="8" fill="#f5a0a0"/><circle cx="115" cy="112" r="8" fill="#f0f0a0"/>
  <circle cx="145" cy="120" r="8" fill="#a0c0f5"/><circle cx="175" cy="108" r="8" fill="#f5c8a0"/><circle cx="205" cy="118" r="8" fill="#f5a0a0"/>
  <circle cx="235" cy="124" r="8" fill="#c0a0f5"/><circle cx="265" cy="112" r="8" fill="#a0f0a0"/><circle cx="295" cy="120" r="8" fill="#f5a0a0"/>
  <circle cx="325" cy="108" r="8" fill="#f0f0a0"/><circle cx="355" cy="118" r="8" fill="#a0c0f5"/><circle cx="385" cy="124" r="8" fill="#f5a0a0"/>
  <circle cx="415" cy="112" r="8" fill="#f5c8a0"/><circle cx="445" cy="118" r="8" fill="#a0f0a0"/><circle cx="475" cy="124" r="8" fill="#c0a0f5"/>
  <circle cx="505" cy="110" r="8" fill="#f5a0a0"/><circle cx="535" cy="120" r="8" fill="#f0f0a0"/><circle cx="565" cy="108" r="8" fill="#a0c0f5"/>
  <circle cx="595" cy="118" r="8" fill="#f5c8a0"/><circle cx="625" cy="124" r="8" fill="#f5a0a0"/><circle cx="655" cy="112" r="8" fill="#a0f0a0"/>
  <circle cx="685" cy="118" r="8" fill="#c0a0f5"/><circle cx="715" cy="124" r="8" fill="#f5a0a0"/><circle cx="745" cy="110" r="8" fill="#f0f0a0"/>
  <!-- Pool/wet floor -->
  <ellipse cx="400" cy="480" rx="420" ry="80" fill="#5ab8f0" opacity=".4"/>
  <!-- Water splashes -->
  <ellipse cx="320" cy="430" rx="25" ry="8" fill="#7dd4f8" opacity=".7"/>
  <ellipse cx="480" cy="440" rx="20" ry="7" fill="#7dd4f8" opacity=".7"/>
  <!-- Olympic rings banner -->
  <rect x="240" y="150" width="320" height="30" rx="5" fill="white" opacity=".85"/>
  <circle cx="285" cy="165" r="10" fill="none" stroke="#0072BB" stroke-width="3"/>
  <circle cx="310" cy="165" r="10" fill="none" stroke="#F4C300" stroke-width="3"/>
  <circle cx="335" cy="165" r="10" fill="none" stroke="#333" stroke-width="3"/>
  <circle cx="360" cy="165" r="10" fill="none" stroke="#00A651" stroke-width="3"/>
  <circle cx="385" cy="165" r="10" fill="none" stroke="#EE334E" stroke-width="3"/>
  <!-- PODIUM -->
  <!-- Gold step (center, highest) -->
  <rect x="310" y="340" width="180" height="120" rx="4" fill="#F5C518"/>
  <text x="400" y="390" text-anchor="middle" font-family="sans-serif" font-size="42" font-weight="900" fill="#c9a000">1</text>
  <!-- Silver step (left) -->
  <rect x="165" y="370" width="145" height="90" rx="4" fill="#c0c8d0"/>
  <!-- Bronze step (right) -->
  <rect x="490" y="385" width="145" height="75" rx="4" fill="#cd7f32"/>

  <!-- TIM on gold (left of Amy, soaking wet) -->
  <!-- Wet drips -->
  <ellipse cx="355" cy="340" rx="8" ry="3" fill="#7dd4f8" opacity=".8"/>
  <rect x="344" y="290" width="4" height="40" rx="2" fill="#7dd4f8" opacity=".6"/>
  <rect x="370" y="295" width="3" height="35" rx="2" fill="#7dd4f8" opacity=".6"/>
  <!-- Body (swimsuit) -->
  <rect x="333" y="278" width="52" height="62" rx="10" fill="#F5C518"/>
  <!-- Arms up (victory) -->
  <path d="M333 288 Q312 278 304 260 Q316 254 322 268 Q330 280 337 286 Z" fill="#E8B08A"/>
  <path d="M385 288 Q406 278 414 260 Q402 254 396 268 Q388 280 384 286 Z" fill="#E8B08A"/>
  <!-- Legs -->
  <rect x="338" y="336" width="18" height="8" rx="4" fill="#e0b000"/>
  <rect x="362" y="336" width="18" height="8" rx="4" fill="#e0b000"/>
  <!-- Head -->
  <circle cx="359" cy="262" r="28" fill="#E8B08A"/>
  <!-- Wet spiky hair -->
  <path d="M334 255 Q337 232 359 229 Q381 232 384 255" fill="#C4965A"/>
  <!-- Wet hair dripping -->
  <path d="M338 254 Q330 262 328 275" fill="none" stroke="#C4965A" stroke-width="5" stroke-linecap="round"/>
  <path d="M380 254 Q388 262 390 275" fill="none" stroke="#C4965A" stroke-width="5" stroke-linecap="round"/>
  <!-- Eyes (elated) -->
  <path d="M349 258 Q359 254 369 258" fill="none" stroke="#555" stroke-width="2"/>
  <!-- Big smile -->
  <path d="M347 272 Q359 283 371 272" fill="none" stroke="#8B5E52" stroke-width="3" stroke-linecap="round"/>
  <!-- Medal -->
  <circle cx="359" cy="300" r="10" fill="#F5C518" stroke="#c9a000" stroke-width="2"/>
  <text x="359" y="304" text-anchor="middle" font-family="sans-serif" font-size="10" font-weight="bold" fill="#c9a000">🥇</text>
  <!-- Water drops on face -->
  <circle cx="340" cy="270" r="2" fill="#7dd4f8"/>
  <circle cx="378" cy="268" r="2" fill="#7dd4f8"/>

  <!-- AMY on gold (right side, soaking wet) -->
  <!-- Wet drips -->
  <ellipse cx="445" cy="340" rx="8" ry="3" fill="#7dd4f8" opacity=".8"/>
  <rect x="434" y="285" width="4" height="45" rx="2" fill="#7dd4f8" opacity=".6"/>
  <rect x="456" y="290" width="3" height="40" rx="2" fill="#7dd4f8" opacity=".6"/>
  <!-- Body -->
  <rect x="422" y="278" width="48" height="62" rx="10" fill="#e05a7a"/>
  <!-- Arms up -->
  <path d="M422 288 Q401 278 393 260 Q405 254 411 268 Q419 280 426 286 Z" fill="#F5C5A3"/>
  <path d="M470 288 Q491 278 499 260 Q487 254 481 268 Q473 280 469 286 Z" fill="#F5C5A3"/>
  <!-- Legs -->
  <rect x="427" y="336" width="16" height="8" rx="4" fill="#c04060"/>
  <rect x="449" y="336" width="16" height="8" rx="4" fill="#c04060"/>
  <!-- Head -->
  <circle cx="446" cy="262" r="26" fill="#F5C5A3"/>
  <!-- Wet dark hair (dripping) -->
  <ellipse cx="446" cy="248" rx="27" ry="18" fill="#2C1810"/>
  <path d="M421 255 Q414 272 416 292 Q424 288 424 275 Q424 262 424 258 Z" fill="#2C1810"/>
  <path d="M471 255 Q478 272 476 292 Q468 288 468 275 Q468 262 468 258 Z" fill="#2C1810"/>
  <!-- Water drops on hair -->
  <circle cx="415" cy="295" r="3" fill="#7dd4f8"/>
  <circle cx="477" cy="293" r="3" fill="#7dd4f8"/>
  <!-- Eyes (excited) -->
  <circle cx="438" cy="260" r="4.5" fill="#444"/>
  <circle cx="454" cy="260" r="4.5" fill="#444"/>
  <circle cx="439" cy="259" r="1.5" fill="white"/>
  <circle cx="455" cy="259" r="1.5" fill="white"/>
  <!-- Big smile -->
  <path d="M436 273 Q446 283 456 273" fill="none" stroke="#8B5E52" stroke-width="2.5" stroke-linecap="round"/>
  <!-- Medal -->
  <circle cx="446" cy="300" r="10" fill="#F5C518" stroke="#c9a000" stroke-width="2"/>
  <text x="446" y="304" text-anchor="middle" font-family="sans-serif" font-size="10" font-weight="bold" fill="#c9a000">🥇</text>

  <text x="400" y="490" text-anchor="middle" font-family="sans-serif" font-size="14" fill="white" opacity=".9">Goud op de Olympische Spelen 🥇</text>
</svg>
