<svg xmlns="http://www.w3.org/2000/svg" viewBox="0 0 800 500">
  <defs>
    <radialGradient id="spotlight1" cx="30%" cy="20%" r="50%">
      <stop offset="0%" stop-color="#fff8d0" stop-opacity=".5"/>
      <stop offset="100%" stop-color="#000" stop-opacity="0"/>
    </radialGradient>
    <radialGradient id="spotlight2" cx="70%" cy="20%" r="50%">
      <stop offset="0%" stop-color="#d0f0ff" stop-opacity=".4"/>
      <stop offset="100%" stop-color="#000" stop-opacity="0"/>
    </radialGradient>
    <radialGradient id="spotlight3" cx="50%" cy="10%" r="40%">
      <stop offset="0%" stop-color="#ffd0ff" stop-opacity=".35"/>
      <stop offset="100%" stop-color="#000" stop-opacity="0"/>
    </radialGradient>
  </defs>
  <!-- Dark stage background -->
  <rect width="800" height="500" fill="#0a0a1a"/>
  <!-- Colored stage lights / atmosphere -->
  <rect width="800" height="500" fill="url(#spotlight1)"/>
  <rect width="800" height="500" fill="url(#spotlight2)"/>
  <rect width="800" height="500" fill="url(#spotlight3)"/>

  <!-- Stage light beams -->
  <path d="M50 0 L150 350 L0 350 Z" fill="#fff8d0" opacity=".05"/>
  <path d="M200 0 L280 350 L130 350 Z" fill="#ffaaff" opacity=".06"/>
  <path d="M400 0 L460 350 L340 350 Z" fill="#aaddff" opacity=".07"/>
  <path d="M600 0 L660 350 L540 350 Z" fill="#ffdd88" opacity=".06"/>
  <path d="M750 0 L800 350 L680 350 Z" fill="#ffaaff" opacity=".05"/>

  <!-- Stage floor -->
  <rect x="0" y="340" width="800" height="50" fill="#1a1208"/>
  <rect x="0" y="338" width="800" height="8" fill="#2a2010"/>
  <!-- Stage floor shine -->
  <rect x="0" y="340" width="800" height="3" fill="#3a3020" opacity=".5"/>
  <!-- Floor board lines -->
  <line x1="100" y1="340" x2="100" y2="390" stroke="#2a2010" stroke-width="2" opacity=".5"/>
  <line x1="200" y1="340" x2="200" y2="390" stroke="#2a2010" stroke-width="2" opacity=".5"/>
  <line x1="300" y1="340" x2="300" y2="390" stroke="#2a2010" stroke-width="2" opacity=".5"/>
  <line x1="400" y1="340" x2="400" y2="390" stroke="#2a2010" stroke-width="2" opacity=".5"/>
  <line x1="500" y1="340" x2="500" y2="390" stroke="#2a2010" stroke-width="2" opacity=".5"/>
  <line x1="600" y1="340" x2="600" y2="390" stroke="#2a2010" stroke-width="2" opacity=".5"/>
  <line x1="700" y1="340" x2="700" y2="390" stroke="#2a2010" stroke-width="2" opacity=".5"/>

  <!-- Crowd silhouettes -->
  <rect x="0" y="390" width="800" height="110" fill="#0d0d1a"/>
  <!-- Crowd heads -->
  <circle cx="25" cy="410" r="14" fill="#1a1a2a"/>
  <circle cx="55" cy="405" r="13" fill="#1a1a2a"/>
  <circle cx="82" cy="412" r="14" fill="#1a1a2a"/>
  <circle cx="110" cy="407" r="13" fill="#1a1a2a"/>
  <circle cx="138" cy="413" r="14" fill="#1a1a2a"/>
  <circle cx="165" cy="405" r="12" fill="#1a1a2a"/>
  <circle cx="192" cy="410" r="14" fill="#1a1a2a"/>
  <circle cx="220" cy="406" r="13" fill="#1a1a2a"/>
  <circle cx="248" cy="412" r="14" fill="#1a1a2a"/>
  <circle cx="276" cy="407" r="13" fill="#1a1a2a"/>
  <circle cx="303" cy="413" r="14" fill="#1a1a2a"/>
  <circle cx="331" cy="405" r="12" fill="#1a1a2a"/>
  <circle cx="358" cy="410" r="14" fill="#1a1a2a"/>
  <circle cx="386" cy="406" r="13" fill="#1a1a2a"/>
  <circle cx="414" cy="412" r="14" fill="#1a1a2a"/>
  <circle cx="441" cy="407" r="12" fill="#1a1a2a"/>
  <circle cx="469" cy="413" r="14" fill="#1a1a2a"/>
  <circle cx="497" cy="405" r="13" fill="#1a1a2a"/>
  <circle cx="524" cy="410" r="14" fill="#1a1a2a"/>
  <circle cx="552" cy="406" r="12" fill="#1a1a2a"/>
  <circle cx="580" cy="412" r="14" fill="#1a1a2a"/>
  <circle cx="607" cy="405" r="13" fill="#1a1a2a"/>
  <circle cx="635" cy="410" r="14" fill="#1a1a2a"/>
  <circle cx="663" cy="407" r="12" fill="#1a1a2a"/>
  <circle cx="690" cy="413" r="14" fill="#1a1a2a"/>
  <circle cx="718" cy="405" r="13" fill="#1a1a2a"/>
  <circle cx="746" cy="410" r="14" fill="#1a1a2a"/>
  <circle cx="774" cy="406" r="12" fill="#1a1a2a"/>
  <!-- Arms raised in crowd -->
  <line x1="55" y1="405" x2="48" y2="385" stroke="#1a1a2a" stroke-width="6" stroke-linecap="round"/>
  <line x1="165" y1="405" x2="172" y2="383" stroke="#1a1a2a" stroke-width="6" stroke-linecap="round"/>
  <line x1="303" y1="413" x2="295" y2="390" stroke="#1a1a2a" stroke-width="6" stroke-linecap="round"/>
  <line x1="441" y1="407" x2="448" y2="385" stroke="#1a1a2a" stroke-width="6" stroke-linecap="round"/>
  <line cx="580" y1="412" x2="573" y2="388" stroke="#1a1a2a" stroke-width="6" stroke-linecap="round"/>
  <line x1="580" y1="412" x2="573" y2="388" stroke="#1a1a2a" stroke-width="6" stroke-linecap="round"/>
  <line x1="718" y1="405" x2="725" y2="382" stroke="#1a1a2a" stroke-width="6" stroke-linecap="round"/>
  <!-- Phones with lights in crowd -->
  <rect x="90" y="395" width="8" height="12" rx="1" fill="#aaddff" opacity=".6"/>
  <rect x="220" y="392" width="8" height="12" rx="1" fill="#aaddff" opacity=".5"/>
  <rect x="390" y="393" width="8" height="12" rx="1" fill="#aaddff" opacity=".6"/>
  <rect x="520" y="390" width="8" height="12" rx="1" fill="#aaddff" opacity=".5"/>
  <rect x="640" y="394" width="8" height="12" rx="1" fill="#aaddff" opacity=".6"/>

  <!-- Stage lights/bar at top -->
  <rect x="0" y="0" width="800" height="25" fill="#1a1515"/>
  <!-- Light fixtures -->
  <rect x="60" y="15" width="30" height="40" rx="5" fill="#333"/>
  <path d="M60 40 L90 40 L95 70 L55 70 Z" fill="#cc8800" opacity=".8"/>
  <circle cx="75" cy="65" r="6" fill="#ffcc00" opacity=".9"/>
  <rect x="180" y="15" width="30" height="38" rx="5" fill="#333"/>
  <path d="M180 38 L210 38 L215 68 L175 68 Z" fill="#cc00cc" opacity=".7"/>
  <circle cx="195" cy="63" r="6" fill="#ff44ff" opacity=".9"/>
  <rect x="300" y="15" width="30" height="38" rx="5" fill="#333"/>
  <path d="M300 38 L330 38 L335 68 L295 68 Z" fill="#0044cc" opacity=".7"/>
  <circle cx="315" cy="63" r="6" fill="#4488ff" opacity=".9"/>
  <rect x="420" y="15" width="30" height="38" rx="5" fill="#333"/>
  <path d="M420 38 L450 38 L455 68 L415 68 Z" fill="#cc8800" opacity=".8"/>
  <circle cx="435" cy="63" r="6" fill="#ffcc00" opacity=".9"/>
  <rect x="540" y="15" width="30" height="38" rx="5" fill="#333"/>
  <path d="M540 38 L570 38 L575 68 L535 68 Z" fill="#cc00cc" opacity=".7"/>
  <circle cx="555" cy="63" r="6" fill="#ff44ff" opacity=".9"/>
  <rect x="660" y="15" width="30" height="38" rx="5" fill="#333"/>
  <path d="M660 38 L690 38 L695 68 L655 68 Z" fill="#0044cc" opacity=".7"/>
  <circle cx="675" cy="63" r="6" fill="#4488ff" opacity=".9"/>

  <!-- Confetti/fireworks -->
  <circle cx="150" cy="150" r="4" fill="#F5C518" opacity=".8"/>
  <circle cx="200" cy="100" r="3" fill="#ff4444" opacity=".7"/>
  <circle cx="120" cy="200" r="3" fill="#44ff88" opacity=".7"/>
  <circle cx="650" cy="130" r="4" fill="#F5C518" opacity=".8"/>
  <circle cx="700" cy="180" r="3" fill="#ff44ff" opacity=".7"/>
  <circle cx="620" cy="220" r="3" fill="#44ffff" opacity=".7"/>
  <!-- Confetti pieces -->
  <rect x="250" y="120" width="8" height="4" rx="1" fill="#F5C518" opacity=".7" transform="rotate(30 250 120)"/>
  <rect x="320" y="80" width="6" height="3" rx="1" fill="#ff4444" opacity=".6" transform="rotate(-20 320 80)"/>
  <rect x="480" y="100" width="8" height="4" rx="1" fill="#44ff88" opacity=".7" transform="rotate(45 480 100)"/>
  <rect x="560" y="140" width="6" height="3" rx="1" fill="#ff44ff" opacity=".6" transform="rotate(-35 560 140)"/>

  <!-- DRUM KIT (Tim, left side) -->
  <!-- Bass drum -->
  <ellipse cx="200" cy="330" rx="60" ry="40" fill="#cc2222"/>
  <ellipse cx="200" cy="330" rx="52" ry="34" fill="#dd3333"/>
  <!-- Logo on bass drum -->
  <circle cx="200" cy="330" r="25" fill="#bb1a1a"/>
  <text x="200" y="337" text-anchor="middle" font-family="sans-serif" font-size="14" font-weight="bold" fill="#F5C518">T</text>
  <!-- Hi-hat stand -->
  <line x1="138" y1="280" x2="138" y2="340" stroke="#888" stroke-width="3"/>
  <ellipse cx="138" cy="278" rx="20" ry="5" fill="#aaa"/>
  <ellipse cx="138" cy="283" rx="20" ry="5" fill="#999"/>
  <!-- Snare drum -->
  <ellipse cx="158" cy="310" rx="28" ry="14" fill="#ddd"/>
  <ellipse cx="158" cy="303" rx="28" ry="14" fill="#eee"/>
  <!-- Tom -->
  <ellipse cx="245" cy="295" rx="22" ry="12" fill="#cc2222"/>
  <ellipse cx="245" cy="288" rx="22" ry="12" fill="#dd3333"/>
  <!-- Cymbal -->
  <ellipse cx="270" cy="262" rx="30" ry="8" fill="#c9a000" transform="rotate(-10 270 262)"/>

  <!-- TIM drumming -->
  <!-- Stool -->
  <rect x="188" y="280" width="24" height="50" rx="5" fill="#555"/>
  <ellipse cx="200" cy="278" rx="22" ry="8" fill="#666"/>
  <!-- Body -->
  <rect x="178" y="210" width="60" height="80" rx="12" fill="#cc2222"/>
  <!-- Rock star leather jacket -->
  <path d="M178 210 L208 228 L208 288 L178 288 Z" fill="#aa1a1a"/>
  <path d="M238 210 L208 228 L208 288 L238 288 Z" fill="#aa1a1a"/>
  <!-- Drumstick arms -->
  <rect x="148" y="218" width="28" height="14" rx="7" fill="#cc2222" transform="rotate(-35 148 225)"/>
  <ellipse cx="133" cy="204" rx="6" ry="10" fill="#c8a060" transform="rotate(-35 133 204)"/>
  <rect x="238" y="218" width="28" height="14" rx="7" fill="#cc2222" transform="rotate(40 238 225)"/>
  <ellipse cx="270" cy="208" rx="6" ry="10" fill="#c8a060" transform="rotate(40 270 208)"/>
  <!-- Head -->
  <circle cx="208" cy="195" r="28" fill="#E8B08A"/>
  <!-- Wild rocker hair -->
  <path d="M182 187 Q184 162 208 158 Q232 162 234 187" fill="#C4965A"/>
  <path d="M184 183 Q172 172 164 158 Q174 152 180 165 Q185 178 186 185 Z" fill="#C4965A"/>
  <path d="M232 183 Q244 172 252 158 Q242 152 236 165 Q231 178 230 185 Z" fill="#C4965A"/>
  <!-- Hair sticking up wildly -->
  <path d="M200 160 Q196 140 202 130 Q208 138 206 158 Z" fill="#C4965A"/>
  <path d="M215 162 Q218 142 225 133 Q229 142 222 162 Z" fill="#C4965A"/>
  <!-- Sunglasses (rock star) -->
  <rect x="192" y="190" width="18" height="11" rx="5" fill="#1a1a1a"/>
  <rect x="213" y="190" width="18" height="11" rx="5" fill="#1a1a1a"/>
  <line x1="210" y1="194" x2="213" y2="194" stroke="#1a1a1a" stroke-width="2"/>
  <line x1="185" y1="193" x2="192" y2="193" stroke="#1a1a1a" stroke-width="2"/>
  <line x1="231" y1="193" x2="238" y2="193" stroke="#1a1a1a" stroke-width="2"/>
  <!-- Huge grin -->
  <path d="M195 208 Q208 218 221 208 Q208 222 195 208 Z" fill="#8B4040"/>
  <rect x="197" y="208" width="22" height="9" rx="2" fill="#8B4040"/>

  <!-- GUITAR (Amy, right side) -->
  <!-- Guitar body -->
  <path d="M520 280 Q490 300 492 330 Q494 360 520 368 Q548 360 555 330 Q560 300 535 282 Z" fill="#8B1a1a"/>
  <path d="M520 280 Q518 288 520 295 Q522 288 520 280 Z" fill="#cc2222"/>
  <!-- Guitar waist -->
  <path d="M492 318 Q480 325 480 332 Q480 340 492 345" fill="none" stroke="#aa1a1a" stroke-width="3"/>
  <path d="M555 318 Q568 325 568 332 Q568 340 555 345" fill="none" stroke="#aa1a1a" stroke-width="3"/>
  <!-- Soundhole -->
  <circle cx="523" cy="325" r="20" fill="#5a0a0a"/>
  <circle cx="523" cy="325" r="16" fill="#6a1010"/>
  <!-- Guitar strings on body -->
  <line x1="514" y1="308" x2="520" y2="358" stroke="#c0c8d0" stroke-width="1.2"/>
  <line x1="518" y1="306" x2="524" y2="358" stroke="#c0c8d0" stroke-width="1.2"/>
  <line x1="522" y1="306" x2="528" y2="358" stroke="#c0c8d0" stroke-width="1.2"/>
  <line x1="526" y1="307" x2="532" y2="358" stroke="#c0c8d0" stroke-width="1.2"/>
  <line x1="530" y1="308" x2="535" y2="358" stroke="#c0c8d0" stroke-width="1.2"/>
  <!-- Guitar neck -->
  <rect x="516" y="175" width="18" height="110" rx="5" fill="#6a3010"/>
  <!-- Frets -->
  <line x1="516" y1="200" x2="534" y2="200" stroke="#c0c8d0" stroke-width="1.5"/>
  <line x1="516" y1="220" x2="534" y2="220" stroke="#c0c8d0" stroke-width="1.5"/>
  <line x1="516" y1="240" x2="534" y2="240" stroke="#c0c8d0" stroke-width="1.5"/>
  <line x1="516" y1="260" x2="534" y2="260" stroke="#c0c8d0" stroke-width="1.5"/>
  <!-- Guitar head -->
  <rect x="513" y="155" width="24" height="25" rx="5" fill="#5a2808"/>
  <circle cx="517" cy="162" r="4" fill="#888"/>
  <circle cx="530" cy="162" r="4" fill="#888"/>
  <circle cx="517" cy="175" r="4" fill="#888"/>
  <circle cx="530" cy="175" r="4" fill="#888"/>

  <!-- AMY playing guitar -->
  <!-- Legs -->
  <rect x="548" y="310" width="20" height="34" rx="9" fill="#1a1a3a"/>
  <rect x="572" y="310" width="20" height="34" rx="9" fill="#1a1a3a"/>
  <!-- Rock star pants (tight, black) -->
  <!-- Body (leather jacket) -->
  <rect x="540" y="220" width="62" height="96" rx="12" fill="#1a1a2a"/>
  <!-- Jacket details -->
  <line x1="571" y1="222" x2="571" y2="314" stroke="#2a2a3a" stroke-width="2"/>
  <!-- Studs on jacket -->
  <circle cx="545" cy="235" r="3" fill="#c0c8d0"/>
  <circle cx="545" cy="248" r="3" fill="#c0c8d0"/>
  <circle cx="545" cy="261" r="3" fill="#c0c8d0"/>
  <circle cx="597" cy="235" r="3" fill="#c0c8d0"/>
  <circle cx="597" cy="248" r="3" fill="#c0c8d0"/>
  <!-- Arms holding guitar -->
  <rect x="510" y="228" width="32" height="15" rx="7" fill="#1a1a2a" transform="rotate(-20 510 235)"/>
  <ellipse cx="500" cy="227" rx="12" ry="8" fill="#F5C5A3" transform="rotate(-20 500 227)"/>
  <rect x="600" y="248" width="30" height="14" rx="7" fill="#1a1a2a" transform="rotate(10 600 255)"/>
  <ellipse cx="632" cy="258" rx="12" ry="8" fill="#F5C5A3" transform="rotate(10 632 258)"/>
  <!-- Head -->
  <circle cx="571" cy="200" r="28" fill="#F5C5A3"/>
  <!-- Rock star wild dark hair -->
  <ellipse cx="571" cy="185" rx="30" ry="20" fill="#2C1810"/>
  <path d="M543 193 Q530 180 526 162 Q538 158 544 174 Q550 186 545 193 Z" fill="#2C1810"/>
  <path d="M599 193 Q612 180 616 162 Q604 158 598 174 Q592 186 597 193 Z" fill="#2C1810"/>
  <!-- Hair spikes/wild -->
  <path d="M555 178 Q550 158 558 148 Q564 158 562 177 Z" fill="#2C1810"/>
  <path d="M586 178 Q591 158 583 148 Q577 158 579 177 Z" fill="#2C1810"/>
  <!-- Sunglasses (rock star) -->
  <rect x="554" y="196" width="17" height="10" rx="5" fill="#1a1a1a"/>
  <rect x="575" y="196" width="17" height="10" rx="5" fill="#1a1a1a"/>
  <line x1="571" y1="199" x2="575" y2="199" stroke="#1a1a1a" stroke-width="2"/>
  <line x1="547" y1="199" x2="554" y2="199" stroke="#1a1a1a" stroke-width="2"/>
  <line x1="592" y1="199" x2="598" y2="199" stroke="#1a1a1a" stroke-width="2"/>
  <!-- Rock star smile -->
  <path d="M560 214 Q571 224 582 216" fill="none" stroke="#8B5E52" stroke-width="2.5" stroke-linecap="round"/>

  <!-- Musical notes floating -->
  <text x="120" y="250" font-family="serif" font-size="28" fill="#F5C518" opacity=".7">♪</text>
  <text x="680" y="230" font-family="serif" font-size="32" fill="#ff88ff" opacity=".6">♫</text>
  <text x="370" y="180" font-family="serif" font-size="24" fill="#88ddff" opacity=".6">♩</text>
  <text x="440" y="210" font-family="serif" font-size="28" fill="#F5C518" opacity=".5">♪</text>

  <text x="400" y="490" text-anchor="middle" font-family="sans-serif" font-size="14" fill="#ffddaa" opacity=".9">Headliners op een groot festival 🎸</text>
</svg>
